<?xml version="1.0" encoding="UTF-8"?>
<svg id="Layer_1" data-name="Layer 1" xmlns="http://www.w3.org/2000/svg" version="1.1" viewBox="0 0 212 44">
  <path d="M205.2,43.5H7.1c-3.3,0-5.9-2.6-5.9-5.8V6.5C1.2,3.3,3.8.7,7.1.7h198c3.3,0,5.9,2.6,5.9,5.8v31.1c0,3.2-2.7,5.8-5.9,5.8h0Z" fill="#121212" stroke="#87fcc4"/>
  <g>
    <path d="M73.1,19.2c1.1,0,1.9.4,2.6,1.1.7.7,1.1,1.7,1.1,2.7s-.4,2-1.1,2.7c-.7.7-1.6,1.1-2.6,1.1h-3v-7.7h3ZM73.1,25.7c.7,0,1.3-.2,1.8-.7.5-.5.7-1.1.7-1.9s-.2-1.4-.7-1.9c-.5-.5-1-.7-1.8-.7h-1.8v5.3h1.8Z" fill="#fff" stroke-width="0"/>
    <path d="M80.4,25.7h3.4v1.2h-4.7v-7.7h4.6v1.2h-3.4v2h3.1v1.2h-3.1v2.1Z" fill="#fff" stroke-width="0"/>
    <path d="M88.9,19.2c.7,0,1.3.2,1.8.7.5.5.7,1.1.7,1.8s-.2,1.3-.7,1.8c-.5.5-1.1.7-1.8.7h-1.6v2.6h-1.3v-7.7h2.8ZM88.9,23.1c.4,0,.7-.1.9-.4.2-.3.4-.6.4-1s-.1-.7-.4-1c-.2-.3-.5-.4-.9-.4h-1.6v2.7h1.6Z" fill="#fff" stroke-width="0"/>
    <path d="M94.9,25.7h3.1v1.2h-4.4v-7.7h1.3v6.5Z" fill="#fff" stroke-width="0"/>
    <path d="M106,25.9c-.8.8-1.7,1.2-2.8,1.2s-2.1-.4-2.8-1.2c-.8-.8-1.2-1.7-1.2-2.8s.4-2.1,1.2-2.8c.8-.8,1.7-1.2,2.8-1.2s2.1.4,2.8,1.2c.8.8,1.2,1.7,1.2,2.8s-.4,2.1-1.2,2.8ZM101.2,25.1c.5.5,1.2.8,1.9.8s1.4-.3,1.9-.8c.5-.5.8-1.2.8-2s-.3-1.4-.8-2c-.5-.5-1.2-.8-1.9-.8s-1.4.3-1.9.8-.8,1.2-.8,2,.3,1.5.8,2Z" fill="#fff" stroke-width="0"/>
    <path d="M114.8,19.2l-2.7,4.6v3.1h-1.3v-3.1l-2.7-4.6h1.4l1.9,3.4,1.9-3.4h1.4Z" fill="#fff" stroke-width="0"/>
    <path d="M125.6,19.2v1.2h-2.2v6.5h-1.3v-6.5h-2.2v-1.2h5.6Z" fill="#fff" stroke-width="0"/>
    <path d="M133.6,25.9c-.8.8-1.7,1.2-2.8,1.2s-2.1-.4-2.8-1.2c-.8-.8-1.2-1.7-1.2-2.8s.4-2.1,1.2-2.8c.8-.8,1.7-1.2,2.8-1.2s2.1.4,2.8,1.2c.8.8,1.2,1.7,1.2,2.8s-.4,2.1-1.2,2.8ZM128.8,25.1c.5.5,1.2.8,1.9.8s1.4-.3,1.9-.8c.5-.5.8-1.2.8-2s-.3-1.4-.8-2c-.5-.5-1.2-.8-1.9-.8s-1.4.3-1.9.8c-.5.5-.8,1.2-.8,2s.3,1.5.8,2Z" fill="#fff" stroke-width="0"/>
    <path d="M146.7,26.9h-1.5l-3-3.7v3.7h-1.3v-7.7h1.3v3.5l2.9-3.5h1.5l-3.1,3.8,3.2,3.9Z" fill="#fff" stroke-width="0"/>
    <path d="M154.4,25.9c-.8.8-1.7,1.2-2.8,1.2s-2.1-.4-2.8-1.2c-.8-.8-1.2-1.7-1.2-2.8s.4-2.1,1.2-2.8c.8-.8,1.7-1.2,2.8-1.2s2.1.4,2.8,1.2c.8.8,1.2,1.7,1.2,2.8s-.4,2.1-1.2,2.8ZM149.6,25.1c.5.5,1.2.8,1.9.8s1.4-.3,1.9-.8c.5-.5.8-1.2.8-2s-.3-1.4-.8-2c-.5-.5-1.2-.8-1.9-.8s-1.4.3-1.9.8c-.5.5-.8,1.2-.8,2s.3,1.5.8,2Z" fill="#fff" stroke-width="0"/>
    <path d="M163.2,19.2l-2.7,4.6v3.1h-1.3v-3.1l-2.7-4.6h1.4l1.9,3.4,1.9-3.4h1.4Z" fill="#fff" stroke-width="0"/>
    <path d="M166.4,25.7h3.4v1.2h-4.7v-7.7h4.6v1.2h-3.4v2h3.1v1.2h-3.1v2.1Z" fill="#fff" stroke-width="0"/>
    <path d="M176.6,22.9c.3.2.6.4.8.7.2.3.3.7.3,1.1,0,.6-.2,1.2-.7,1.6-.4.4-1,.6-1.6.6h-3.3v-7.7h3.1c.6,0,1.2.2,1.6.6.4.4.7.9.7,1.5s-.3,1.2-.8,1.6ZM175.1,20.4h-1.8v2h1.8c.3,0,.5,0,.7-.3.2-.2.3-.4.3-.7s0-.5-.3-.7c-.2-.2-.4-.3-.7-.3ZM175.3,25.7c.3,0,.5-.1.7-.3.2-.2.3-.5.3-.8s-.1-.6-.3-.8c-.2-.2-.4-.3-.7-.3h-2v2.2h2Z" fill="#fff" stroke-width="0"/>
  </g>
  <path d="M35.3,9.3h0c7.6,0,13.8,6.2,13.8,13.8h0c0,7.6-6.2,13.8-13.8,13.8h0c-7.6,0-13.8-6.2-13.8-13.8h0c0-7.6,6.2-13.8,13.8-13.8Z" fill="#121212" stroke="#87fcc4"/>
  <g>
    <path d="M35.3,20.6l5,2.9v-2.4l-5-2.9-5,2.9v2.4l5-2.9Z" fill="#87fcc4" stroke-width="0"/>
    <path d="M39.5,26.3l.8-.5v-1.5l-5-2.9-5,2.9v1.5l.8.5,4.2-2.4,4.2,2.4Z" fill="#87fcc4" stroke-width="0"/>
    <path d="M35.3,27.3l1.3.7,2.1-1.2-3.3-1.9-3.3,1.9,2.1,1.2,1.3-.7Z" fill="#87fcc4" stroke-width="0"/>
  </g>
</svg>
