<?xml version="1.0" encoding="UTF-8"?>
<svg id="Layer_1" data-name="Layer 1" xmlns="http://www.w3.org/2000/svg" version="1.1" viewBox="0 0 212 44" width="212" height="44">
  <path d="M205.2,43.5H7.1c-3.3,0-5.9-2.6-5.9-5.8V6.5C1.2,3.3,3.8.7,7.1.7h198c3.3,0,5.9,2.6,5.9,5.8v31.1c0,3.2-2.7,5.8-5.9,5.8h0Z" fill="#121212" stroke="#87fcc4"/>
  <path d="M35.3,9.3h0c7.6,0,13.8,6.2,13.8,13.8h0c0,7.6-6.2,13.8-13.8,13.8h0c-7.6,0-13.8-6.2-13.8-13.8h0c0-7.6,6.2-13.8,13.8-13.8Z" fill="#121212" stroke="#87fcc4"/>
  <g>
    <path d="M35.3,20.6l5,2.9v-2.4l-5-2.9-5,2.9v2.4l5-2.9Z" fill="#87fcc4" stroke-width="0"/>
    <path d="M39.5,26.3l.8-.5v-1.5l-5-2.9-5,2.9v1.5l.8.5,4.2-2.4,4.2,2.4Z" fill="#87fcc4" stroke-width="0"/>
    <path d="M35.3,27.3l1.3.7,2.1-1.2-3.3-1.9-3.3,1.9,2.1,1.2,1.3-.7Z" fill="#87fcc4" stroke-width="0"/>
  </g>
  <g id="h" isolation="isolate">
    <path d="M87.2,13.7c-.4.2-.7.4-1,.6,2.6,0,4.3,0,5,0v1.8c-.4,0-1.3,0-2.5,0l1.6.8c-.4.7-1.1,1.9-1.9,3.7,1.5,0,2.7,0,3.5,0v1.8c-.8,0-1.6,0-2.4,0h-7c-1.1,0-2.1,0-2.8,0v-1.8c.4,0,1.6,0,3.6,0-.4-1.1-1-2.2-1.7-3.3.5-.2,1-.5,1.6-.8.6.9,1.3,2,2,3.3-.6.3-1.1.6-1.4.8h3c.8-1.9,1.3-3.4,1.5-4.4h-2.2c-2.9,0-4.8,0-5.6,0v-1.8c.8,0,2.4,0,5.1,0-.5-1-1-1.8-1.5-2.3.6-.3,1.1-.6,1.5-.9,1,1.2,1.7,2.2,2,2.7,0,0,0,0,0,0ZM90,28.4c0,1.4,0,2.9,0,4.5h-1.9v-1.9h-5.1v1.9h-1.9c0-1.3,0-2.7,0-4.1s0-3.1,0-4.7h8.8c0,1.4,0,2.9,0,4.3h0ZM88.2,29.5v-3.9h-5.1v3.9h5.1ZM100.4,23.9c.5,1,.8,2,.7,3,0,1-.5,1.8-1.3,2.3-.8.5-1.9.9-3.5,1.1-.1-.7-.4-1.4-.8-2.2,1.5,0,2.5-.2,2.9-.5.5-.3.7-.8.7-1.4,0-.6-.4-1.3-1-2.3-.6-1-1.3-1.9-2.2-2.7.5-1.1,1.2-3.3,2-6.5h-3.4v18.5h-1.9c0-1.3,0-2.8,0-4.5v-11.4c0-1.4,0-2.8-.2-4.1h7.9c-1,3.3-1.8,5.8-2.5,7.8,1.1,1.1,1.9,2.2,2.5,3.1,0,0,0,0,0,0Z" fill="#fff" stroke-width="0"/>
    <path d="M120.4,18.8c1.4,0,2.8,0,3.9-.2v1.7c1.4-1.1,2.4-2,2.8-2.7.4.6,1.1,1.1,1.9,1.4-.7.4-1.4.9-2.2,1.5s-1.6,1-2.2,1.5h3c1,0,2,0,3,0v1.6c-1,0-2,0-3,0h-5.3c-.4.2-1.2.7-2.3,1.3h7.6c0,1.1,0,2.5,0,4.1s0,2.9,0,3.9h-1.8v-.8h-10.2v1h-1.9c0-1.2,0-3,0-5.3-1.2.4-2.3.8-3.5,1.2-.2-.6-.5-1.1-.9-1.6.9-.2,2.4-.7,4.4-1.4v-1.2h2.6c1.2-.5,2.2-.9,2.9-1.3h-6.8c-1,0-1.9,0-2.8,0v-1.6c.9,0,1.8,0,2.9,0h6.1v-1.7h-3.8c-1,0-1.9,0-2.8,0v-1.8c.9.1,1.8.2,2.8.2h3.8v-1.6h1.9c0,.6,0,1.2,0,1.6,0,0,0,0,0,0ZM128.1,14.5c0,.8,0,1.6,0,2.3h-16.3c0-.9,0-1.8,0-2.5s0-1.6,0-2.4h16.3c0,.9,0,1.8,0,2.6h0ZM116.8,15.5v-2.2h-3.2v2.2h3.2ZM115.4,27.8h10.2v-1.6h-8.7c-.7.3-1.2.6-1.5.8v.8ZM125.6,30.5v-1.4h-10.2v1.4h10.2ZM121.6,15.5v-2.2h-3.1v2.2h3.1ZM121.6,22c.4-.2,1.2-.8,2.6-1.7h-3.8v1.7s1.2,0,1.2,0ZM126.4,15.5v-2.2h-3.1v2.2h3.1Z" fill="#fff" stroke-width="0"/>
    <path d="M144.2,11.2h1.9c0,.8,0,1.7,0,2.7.7,0,1.5,0,2.4,0v1.7c-.8,0-1.6,0-2.4,0v2.5h.8c.6-.6,1.1-1.4,1.7-2.3s1-1.9,1.3-2.9c.6.4,1.1.7,1.7,1-.2.2-.5.7-1,1.5-.5.8-1.1,1.7-1.8,2.7,1,0,1.8,0,2.2,0v1.7c-.9,0-2.1,0-3.4,0-.8.8-1.6,1.5-2.3,2.2h4.5v1.4c-.4.2-.9.5-1.4.8-.5.3-1.1.7-1.6,1.2v1.1c1.4-.2,2.8-.4,4.1-.7v1.5c-.2,0-1.6.2-4.1.7v2.9c0,1.3-1.1,2.1-3.6,2.2,0-.7-.3-1.3-.7-2,1.7.1,2.5-.2,2.5-.9v-2c-2.3.4-4,.8-5.1,1.1l-.8-1.9c.9,0,2.8-.3,5.8-.8,0-.7,0-1.3-.2-1.9.7-.4,1.3-.9,2-1.4h-3.6c-1,.8-2,1.4-3.1,2.1-.4-.5-.8-1-1.3-1.4,1-.4,2-1,3.1-1.6v-.6h.8c1.1-.9,2-1.6,2.5-2.2-2.9,0-4.9,0-6,0v-1.7c1.1,0,2.8,0,5.1,0v-2.5c-1.2,0-2.4,0-3.4,0v-1.7c.9,0,2.1,0,3.4,0,0-1.1,0-2,0-2.7h0s0,0,0,0ZM154.2,16.1c3.4,0,5.6,0,6.7,0v1.7c-.9,0-1.6,0-2.2,0-.1,1.2-.3,2.4-.5,3.6s-.4,2.2-.7,3.3c-.3,1.1-.7,2.1-1.3,3.2,1.2,1.5,2.9,2.6,4.9,3.3-.7.6-1.1,1.2-1.3,1.7-1.6-.8-3.2-2-4.7-3.7-1.6,1.7-3.5,3-5.9,4-.2-.5-.6-1-1.1-1.5,2.5-.8,4.5-2.1,6.1-3.9-.9-1.9-1.7-3.9-2.2-6l-1,1.6c-.3-.4-.7-.9-1.2-1.3.8-1,1.4-2.3,2-3.9.6-1.6,1-2.9,1.2-4.1.2-1.1.4-2,.4-2.5.8.3,1.4.6,2.1.8-.2.2-.6,1.5-1.3,4ZM155.3,25.9c.8-1.7,1.4-4.5,1.8-8.3h-3.3c-.2.7-.5,1.3-.7,1.8.6,2.9,1.3,5.1,2.2,6.6Z" fill="#fff" stroke-width="0"/>
    <path d="M173.1,12c1.3-.3,2.5-.6,3.4-1.1.4.8.9,1.5,1.3,2.1-.4,0-.9,0-1.4,0s-1,.2-1.6.2v4.6c.9,0,1.8,0,2.8,0v1.8c-1,0-1.9,0-2.8,0v8.2c0,1.4,0,3.2,0,5.5h-1.9c0-2.3,0-4.1,0-5.4v-4.3c-.9,1.8-1.8,3.4-2.9,5-.4-.6-.9-1.2-1.5-1.7.9-.9,1.7-1.9,2.3-3,.7-1.1,1.3-2.6,1.9-4.3-1.6,0-2.7,0-3.5,0v-1.8c1.1,0,1.8,0,2.3,0h1.3v-4.2c-.8.2-1.8.4-3.1.6-.2-.6-.4-1.1-.7-1.6,1.1-.1,2.3-.3,3.6-.6h0ZM178.6,25c-.4.2-.9.6-1.5,1.1-.6-1.4-1.2-2.5-1.9-3.4.4-.3.8-.7,1.4-1,.6.9,1.3,2,2,3.3h0ZM187.1,21.4c1,0,2.1,0,3.2,0v1.7c-1.1,0-2.2,0-3.2,0h-1.8v3h1c.9,0,2,0,3.3,0v1.8c-1.2,0-2.2,0-3,0h-1.3v3.3h2.2c1.1,0,2.3,0,3.6,0v1.8c-1,0-2.2,0-3.6,0h-6.3c-1.4,0-2.6,0-3.6.2v-1.9c1,0,2.2,0,3.6,0h2.2v-3.3h-1.3c-1,0-1.9,0-2.8.2v-1.9c.9,0,1.8,0,2.8,0h1.3v-3h-1.5c-1.1,0-2.2,0-3.2,0v-1.7c1,0,2.1,0,3.2,0h5.1ZM189.8,15.8c0,1.1,0,2.1,0,3.2h-10.5c0-1.2,0-2.3,0-3.4s0-2.2,0-3.6h10.5c0,1.4,0,2.6,0,3.8ZM187.8,17.3v-3.7h-6.7v3.7h6.7Z" fill="#fff" stroke-width="0"/>
  </g>
</svg>
